<?xml version="1.0" standalone="no"?><!DOCTYPE svg PUBLIC "-//W3C//DTD SVG 1.1//EN" "http://www.w3.org/Graphics/SVG/1.1/DTD/svg11.dtd"><svg t="1694863706869" class="icon" viewBox="0 0 1024 1024" version="1.1" xmlns="http://www.w3.org/2000/svg" p-id="9018" xmlns:xlink="http://www.w3.org/1999/xlink" width="64" height="64"><path d="M699.733333 467.2l-55.466666 8.533333c-10.666667 2.133333-21.333333 10.666667-23.466667 21.333334l-51.2 230.4c0 2.133333-2.133333 4.266667-4.266667 4.266666l-53.333333 10.666667-53.333333-8.533333c-2.133333 0-4.266667-2.133333-4.266667-4.266667l-51.2-230.4c-2.133333-10.666667-12.8-19.2-23.466667-21.333333l-55.466666-8.533334c-6.4-2.133333-12.8 2.133333-12.8 8.533334 0 6.4 2.133333 10.666667 8.533333 12.8l55.466667 8.533333c2.133333 0 4.266667 2.133333 4.266666 4.266667l51.2 230.4c2.133333 10.666667 12.8 19.2 23.466667 21.333333l44.8 6.4c6.4 2.133333 12.8 2.133333 12.8 2.133333s4.266667 0 10.666667-2.133333l49.066666-8.533333c10.666667-2.133333 21.333333-10.666667 23.466667-21.333334l51.2-230.4c0-2.133333 2.133333-4.266667 4.266667-4.266666l55.466666-8.533334c6.4 0 10.666667-6.4 8.533334-12.8-2.133333-4.266667-8.533333-8.533333-14.933334-8.533333zM887.466667 234.666667L563.2 53.333333c-27.733333-14.933333-72.533333-14.933333-100.266667 0L136.533333 234.666667C106.666667 251.733333 85.333333 288 85.333333 320v384c0 32 21.333333 68.266667 51.2 85.333333l326.4 181.333334c12.8 8.533333 32 12.8 49.066667 12.8 19.2 0 36.266667-4.266667 51.2-12.8L889.6 789.333333c27.733333-14.933333 51.2-53.333333 51.2-85.333333V320c-2.133333-32-23.466667-68.266667-53.333333-85.333333z m6.4 469.333333c0 17.066667-12.8 38.4-27.733334 46.933333l-326.4 181.333334c-14.933333 8.533333-42.666667 8.533333-55.466666 0L157.866667 750.933333c-14.933333-8.533333-27.733333-29.866667-27.733334-46.933333V320c0-17.066667 12.8-38.4 27.733334-46.933333l326.4-181.333334c6.4-4.266667 17.066667-6.4 27.733333-6.4s21.333333 2.133333 27.733333 6.4l326.4 181.333334c14.933333 8.533333 27.733333 29.866667 27.733334 46.933333v384z m-98.133334-407.466667l-51.2 68.266667c-2.133333 2.133333-6.4 6.4-10.666666 6.4l-213.333334 29.866667h-19.2l-213.333333-29.866667c-2.133333 0-8.533333-4.266667-10.666667-6.4l-49.066666-68.266667c-4.266667-4.266667-10.666667-6.4-14.933334-2.133333-4.266667 4.266667-6.4 10.666667-2.133333 14.933333l49.066667 68.266667c6.4 6.4 14.933333 12.8 25.6 14.933333l213.333333 29.866667h25.6l213.333333-29.866667c8.533333-2.133333 19.2-8.533333 25.6-14.933333l51.2-68.266667c4.266667-4.266667 2.133333-12.8-2.133333-14.933333-6.4-4.266667-14.933333-2.133333-17.066667 2.133333z" fill="#13227a" p-id="9019"></path></svg>